<?xml version="1.0" encoding="UTF-8"?>
<!-- Created with Inkscape (http://www.inkscape.org/) -->
<svg width="17675" height="2576.1" version="1.1" viewBox="0 0 4676.4 681.6" xmlns="http://www.w3.org/2000/svg" xmlns:xlink="http://www.w3.org/1999/xlink">
 <defs>
  <linearGradient id="linearGradient1183" x1="973.83" x2="975.71" y1="1685.4" y2="259.24" gradientUnits="userSpaceOnUse" xlink:href="#linearGradient1181"/>
  <linearGradient id="linearGradient1181">
   <stop stop-color="#acf11b" offset="0"/>
   <stop stop-color="#017b05" offset="1"/>
  </linearGradient>
  <filter id="filter4811" x="-.083997" y="-.068473" width="1.168" height="1.1369" color-interpolation-filters="sRGB">
   <feFlood flood-color="rgb(255,255,255)" result="flood"/>
   <feComposite in="SourceGraphic" in2="flood" operator="in" result="composite1"/>
   <feGaussianBlur in="composite1" result="blur" stdDeviation="40.4984"/>
   <feOffset dx="0" dy="0" result="offset"/>
   <feComposite in="SourceGraphic" in2="offset" result="fbSourceGraphic"/>
   <feColorMatrix in="fbSourceGraphic" result="fbSourceGraphicAlpha" values="0 0 0 -1 0 0 0 0 -1 0 0 0 0 -1 0 0 0 0 1 0"/>
   <feColorMatrix in="fbSourceGraphic" type="hueRotate" values="0"/>
   <feColorMatrix type="saturate" values="1"/>
   <feColorMatrix values="2 -1 0 0 0 0 2 -1 0 0 -1 0 2 0 0 0 0 0 1 0 "/>
  </filter>
 </defs>
 <g transform="translate(-38.268 -9.2023)">
  <path class="UnoptimicedTransforms" transform="matrix(.42233 0 0 .42233 -87.614 -62.051)" d="m541.87 265.91 20.849 68.146 276.55 232.06 13.887-0.34262h14.657v-26.359zm-36.035 77.971-18.572 286.75 90.663 129.48 38.682 2.1539-101.76-145.33 17.739-241.17zm86.435 36.155-10.369 8.1049 224.37 267.39 2.3957 0.31522 48.036-46.032-1.697-9.3193zm-17.351 17.752-20.88 215.39 103.1 147.24 143.28-93.89zm9.9441 30.146 196.45 234.12-120.48 78.859-91.425-130.6zm80.894 36.518 171.89 141.13 0.22531 4.8886-24.941 25.221h-3.7006zm225.66 71.278v29.959h82.408v-29.959zm-24.755 76.882-51.594 53.407-166.77 105.97 204.52 292.09v76.282l71.017 443.92 49.98 0.2052v-971.88zm13.892 24.198h79.444v921.83h-20.324l-56.156-418.06v-78.657l-198.01-282.79 146.91-92.45zm-301.06 133.08-154.12 186.92 30.584 32.126 123.06-153.04zm78.506 30.305-82.426 102.1-83.991 104.64 113.51 251.98 129.06-144.52v-105.8l-3.1249-103.7-36.313-51.86zm0.6196 40.574 47.044 67.186 3.1368 97.048v102.58l-95.698 105.38-93.004-200.36 69.26-85.915zm-263.36 192.43 132 287.41 136.1 84.624 124.83 266.34 20.065-45.526-116.25-248.86-136.67-85.478-99.749-220.95zm447.02 107.16-85.078 1.3492-2.5068 213.58 148.68 284.99 10.193-64.353zm-116.19 6.2911-97.872 111.44 82.455 65.212 33.298 0.2734v-170.45zm54.586 19.015 47.586 2.3487 63.758 394.9-111.48-214.17zm-51.407 6.7991v128.82l-17.34 0.278-57.678-47.742 69.26-80.787zm200.78 420.74v4.2798l-3.9104 3.9104-3.9104 3.9103-1.2749 26.702-1.2749 26.702 2.6396 7.6662 2.6391 7.6662 6.1216 5.673 6.1216 5.6731h36.635v-92.184zm475.74-1327.3-20.849 68.146-276.55 232.06-13.887-0.34262h-14.657v-26.359zm36.035 77.971 18.572 286.75-90.663 129.48-38.682 2.1539 101.76-145.33-17.739-241.17zm-86.435 36.155 10.369 8.1049-224.37 267.39-1.1978 0.15761-1.1979 0.15761-48.036-46.032 1.697-9.3193zm17.351 17.752 20.88 215.39-103.1 147.24-143.28-93.89zm-9.9441 30.146-196.45 234.12 120.48 78.859 91.425-130.6zm-80.894 36.518-171.89 141.13-0.2253 4.8886 24.941 25.221h3.7006zm-225.66 71.278v29.959h-82.408v-29.959zm24.755 76.882 51.594 53.407 166.77 105.97-204.52 292.09v76.282l-71.017 443.92-49.98 0.2052v-971.88zm-13.892 24.198h-79.444v921.83h20.324l56.156-418.06v-78.657l198.01-282.79-146.91-92.45zm301.06 133.08 154.12 186.92-30.584 32.126-123.06-153.04zm-78.506 30.305 82.426 102.1 83.991 104.64-113.51 251.98-129.06-144.52v-105.8l3.1249-103.7 36.313-51.86zm-0.6196 40.574-47.044 67.186-3.1368 97.048v102.58l95.698 105.38 93.004-200.36-69.26-85.915zm263.36 192.43-132 287.41-136.1 84.624-124.83 266.34-20.065-45.526 116.25-248.86 136.67-85.478 99.749-220.95zm-447.02 107.16 42.539 0.6743 42.539 0.6749 2.5068 213.58-148.68 284.99-10.193-64.353zm116.19 6.2911 97.872 111.44-82.455 65.212-33.298 0.2734v-170.45zm-54.586 19.015-47.586 2.3487-63.758 394.9 111.48-214.17zm51.407 6.7991v128.82l17.34 0.278 57.678-47.742-69.26-80.787zm-200.78 420.74v4.2798l3.9103 3.9104 3.9104 3.9103 1.2748 26.702 1.2749 26.702-2.6396 7.6662-2.6392 7.6662-12.243 11.346h-36.636v-92.184z" fill="url(#linearGradient1183)" filter="url(#filter4811)" stroke-width="2.3046"/>
  <path class="UnoptimicedTransforms" transform="matrix(.42233 0 0 .42233 -87.614 -62.051)" d="m541.87 265.91 20.849 68.146 276.55 232.06 13.887-0.34262h14.657v-26.359zm-36.035 77.971-18.572 286.75 90.663 129.48 38.682 2.1539-101.76-145.33 17.739-241.17zm86.435 36.155-10.369 8.1049 224.37 267.39 2.3957 0.31522 48.036-46.032-1.697-9.3193zm-17.351 17.752-20.88 215.39 103.1 147.24 143.28-93.89zm9.9441 30.146 196.45 234.12-120.48 78.859-91.425-130.6zm80.894 36.518 171.89 141.13 0.22531 4.8886-24.941 25.221h-3.7006zm225.66 71.278v29.959h82.408v-29.959zm-24.755 76.882-51.594 53.407-166.77 105.97 204.52 292.09v76.282l71.017 443.92 49.98 0.2052v-971.88zm13.892 24.198h79.444v921.83h-20.324l-56.156-418.06v-78.657l-198.01-282.79 146.91-92.45zm-301.06 133.08-154.12 186.92 30.584 32.126 123.06-153.04zm78.506 30.305-82.426 102.1-83.991 104.64 113.51 251.98 129.06-144.52v-105.8l-3.1249-103.7-36.313-51.86zm0.6196 40.574 47.044 67.186 3.1368 97.048v102.58l-95.698 105.38-93.004-200.36 69.26-85.915zm-263.36 192.43 132 287.41 136.1 84.624 124.83 266.34 20.065-45.526-116.25-248.86-136.67-85.478-99.749-220.95zm447.02 107.16-85.078 1.3492-2.5068 213.58 148.68 284.99 10.193-64.353zm-116.19 6.2911-97.872 111.44 82.455 65.212 33.298 0.2734v-170.45zm54.586 19.015 47.586 2.3487 63.758 394.9-111.48-214.17zm-51.407 6.7991v128.82l-17.34 0.278-57.678-47.742 69.26-80.787zm200.78 420.74v4.2798l-3.9104 3.9104-3.9104 3.9103-1.2749 26.702-1.2749 26.702 2.6396 7.6662 2.6391 7.6662 6.1216 5.673 6.1216 5.6731h36.635v-92.184zm475.74-1327.3-20.849 68.146-276.55 232.06-13.887-0.34262h-14.657v-26.359zm36.035 77.971 18.572 286.75-90.663 129.48-38.682 2.1539 101.76-145.33-17.739-241.17zm-86.435 36.155 10.369 8.1049-224.37 267.39-1.1978 0.15761-1.1979 0.15761-48.036-46.032 1.697-9.3193zm17.351 17.752 20.88 215.39-103.1 147.24-143.28-93.89zm-9.9441 30.146-196.45 234.12 120.48 78.859 91.425-130.6zm-80.894 36.518-171.89 141.13-0.2253 4.8886 24.941 25.221h3.7006zm-225.66 71.278v29.959h-82.408v-29.959zm24.755 76.882 51.594 53.407 166.77 105.97-204.52 292.09v76.282l-71.017 443.92-49.98 0.2052v-971.88zm-13.892 24.198h-79.444v921.83h20.324l56.156-418.06v-78.657l198.01-282.79-146.91-92.45zm301.06 133.08 154.12 186.92-30.584 32.126-123.06-153.04zm-78.506 30.305 82.426 102.1 83.991 104.64-113.51 251.98-129.06-144.52v-105.8l3.1249-103.7 36.313-51.86zm-0.6196 40.574-47.044 67.186-3.1368 97.048v102.58l95.698 105.38 93.004-200.36-69.26-85.915zm263.36 192.43-132 287.41-136.1 84.624-124.83 266.34-20.065-45.526 116.25-248.86 136.67-85.478 99.749-220.95zm-447.02 107.16 42.539 0.6743 42.539 0.6749 2.5068 213.58-148.68 284.99-10.193-64.353zm116.19 6.2911 97.872 111.44-82.455 65.212-33.298 0.2734v-170.45zm-54.586 19.015-47.586 2.3487-63.758 394.9 111.48-214.17zm51.407 6.7991v128.82l17.34 0.278 57.678-47.742-69.26-80.787zm-200.78 420.74v4.2798l3.9103 3.9104 3.9104 3.9103 1.2748 26.702 1.2749 26.702-2.6396 7.6662-2.6392 7.6662-12.243 11.346h-36.636v-92.184z" fill="url(#linearGradient1183)" stroke-width="2.3046"/>
  <path transform="matrix(2.3276 0 0 2.344 458.19 -1823.5)" d="m1562.1 1019.1c-1.019 0-1.5288 0.4904-1.5288 1.4717v3.6232c0 1.0192 0.5098 1.5289 1.5288 1.5289h27.345c1.5097 0 2.6611 0.3775 3.4537 1.1324 0.8304 0.7171 1.2452 1.8302 1.2452 3.34 0 1.472-0.4148 2.6234-1.2452 3.4538-0.7926 0.7926-1.944 1.189-3.4537 1.189h-5.8315c-5.0953 0-9.2466 0.1884-12.455 0.5659-3.1705 0.3397-5.6617 1.0191-7.4734 2.0382-1.8117 1.019-3.0388 2.4346-3.6804 4.2463s-0.9625 4.1518-0.9625 7.0203v7.473c0 1.019 0.5098 1.5288 1.5288 1.5288h52.313c1.0191 0 1.5283-0.5098 1.5283-1.5288v-3.6232c0-1.0191-0.5092-1.5289-1.5283-1.5289h-32.384v-3.7365c0-1.0191 0.076-1.8871 0.2266-2.6041 0.1888-0.755 0.5284-1.3588 1.0191-1.8116 0.4906-0.4907 1.1886-0.8304 2.0945-1.0191 0.9058-0.2265 2.0948-0.3399 3.5668-0.3399h13.474c2.2646 0 4.2086-0.3019 5.8315-0.9058 1.6607-0.6416 3.0005-1.4722 4.0195-2.4913 1.0568-1.0191 1.8306-2.1888 2.3212-3.5099 0.5284-1.321 0.7929-2.6799 0.7929-4.0764 0-1.4342-0.2645-2.8308-0.7929-4.1896-0.5284-1.3587-1.3209-2.5664-2.3777-3.6232-1.0568-1.0946-2.3965-1.9625-4.0195-2.6041-1.623-0.6794-3.5293-1.0191-5.7185-1.0191zm59.276 0c-0.9813 0-1.4718 0.4904-1.4718 1.4717v3.6232c0 1.0191 0.4905 1.5289 1.4718 1.5289h25.137c1.8871 0 3.1706 0.3587 3.85 1.0758 0.7171 0.6794 1.0755 1.5851 1.0755 2.7174s-0.3584 2.0569-1.0755 2.774c-0.6794 0.7171-1.9629 1.0757-3.85 1.0757h-25.373c-1.019 0-1.5288 0.491-1.5288 1.4723v3.6798c0 0.9813 0.5098 1.4723 1.5288 1.4723h24.411c2.1514 0 3.6988 0.4525 4.6424 1.3584 0.9436 0.8681 1.4157 2.2269 1.4157 4.0763 0 1.8117-0.4721 3.2084-1.4157 4.1897-0.9436 0.9436-2.491 1.4151-4.6424 1.4151h-24.628c-0.9813 0-1.4717 0.5098-1.4717 1.5289v3.6232c0 1.019 0.4904 1.5288 1.4717 1.5288h39.235c2.4155 0 4.4915-0.3397 6.2277-1.019 1.7362-0.6794 3.1703-1.5668 4.3026-2.6613 1.1323-1.0946 1.9624-2.3212 2.4908-3.6799 0.5285-1.3965 0.7929-2.8119 0.7929-4.2462 0-1.3965-0.2076-2.6609-0.6228-3.7932-0.3775-1.1701-0.8684-2.1703-1.4723-3.0006-0.6039-0.8681-1.2639-1.5663-1.9809-2.0948-0.7171-0.5661-1.3782-0.9437-1.9821-1.1324 0.3775-0.1887 0.8115-0.4528 1.3022-0.7925 0.5284-0.3397 1.0193-0.7923 1.4722-1.3584 0.4529-0.5662 0.8302-1.2645 1.1321-2.0948 0.3397-0.8303 0.5098-1.8306 0.5098-3.0007 0-3.0572-0.9439-5.4351-2.831-7.1336-1.8495-1.7362-4.661-2.6041-8.4353-2.6041zm59.22 0c-1.0191 0-1.5288 0.4904-1.5288 1.4717v18.57c0 1.0191 0.5097 1.5289 1.5288 1.5289h29.836c0.8304 0 1.5478 0.1507 2.1516 0.4526 0.6417 0.3019 1.1508 0.6984 1.5283 1.189 0.3774 0.4907 0.6607 1.0567 0.8494 1.6983 0.1888 0.6039 0.2832 1.2271 0.2832 1.8688 0 0.6416-0.094 1.2832-0.2832 1.9249-0.1887 0.6039-0.472 1.151-0.8494 1.6417-0.3775 0.4905-0.8866 0.887-1.5283 1.189-0.6038 0.2642-1.3212 0.396-2.1516 0.396h-29.949c-1.0189 0-1.5287 0.5098-1.5287 1.5289v3.6232c0 1.0189 0.5098 1.5288 1.5287 1.5288h41.442c2.0759 0 3.869-0.3208 5.3788-0.9624 1.5474-0.6794 2.8115-1.5478 3.7929-2.6046 0.9813-1.0946 1.7174-2.3211 2.2081-3.6799 0.4907-1.3965 0.7359-2.812 0.7359-4.2462 0-1.472-0.2452-2.8875-0.7359-4.2463-0.4907-1.3965-1.2268-2.623-2.2081-3.6799-0.9814-1.0945-2.2455-1.9624-3.7929-2.6041-1.5098-0.6416-3.3029-0.9624-5.3788-0.9624h-23.948v-9.0019h32.328c1.019 0 1.5282-0.5097 1.5282-1.5289v-3.6232c0-0.9813-0.5092-1.4717-1.5282-1.4717zm70.09 0c-2.1891 0-4.0767 0.3209-5.6619 0.9625-1.5852 0.6417-2.9061 1.4906-3.963 2.5474-1.0191 1.0191-1.774 2.2083-2.2647 3.5671-0.4907 1.3587-0.7359 2.7365-0.7359 4.133 0 1.4343 0.2645 2.8493 0.7929 4.2458 0.5285 1.3963 1.3398 2.6424 2.4343 3.7369s2.4911 1.9815 4.1896 2.6608c1.7362 0.6417 3.7747 0.9624 6.1146 0.9624h23.948v4.8689c0 2.8308-2.0008 4.2463-6.0016 4.2463h-32.458c-1.0191 0-1.5288 0.5093-1.5288 1.5284v3.6232c0 1.0189 0.5097 1.5288 1.5288 1.5288h44.177c1.8495 0 3.6615-0.2451 5.4353-0.7358 1.7739-0.5284 3.3589-1.3213 4.7554-2.3781 1.3965-1.0945 2.5098-2.4723 3.3402-4.133 0.8303-1.6607 1.2456-3.6233 1.2456-5.8879v-10.417c0-2.6798-0.4153-4.9633-1.2456-6.8504-0.8304-1.9249-1.925-3.4917-3.2837-4.6995-1.3588-1.2078-2.9437-2.0946-4.7554-2.6607-1.7739-0.5661-3.6234-0.8492-5.5483-0.8492zm12.285 6.6238h6.681c1.7362 0 3.1515 0.5477 4.2461 1.6422 1.0945 1.0568 1.6419 2.5285 1.6419 4.4157v4.2463h-12.569c-0.9813 0-1.8114-0.1513-2.4907-0.4532-0.6794-0.3019-1.2267-0.6794-1.6419-1.1323-0.4152-0.4907-0.7172-1.0378-0.9059-1.6417-0.1891-0.6039-0.2832-1.2266-0.2832-1.8682 0-0.6417 0.094-1.2644 0.2832-1.8683 0.1887-0.6417 0.4907-1.2076 0.9059-1.6983s0.9625-0.8871 1.6419-1.189c0.6793-0.3019 1.5094-0.4532 2.4907-0.4532z" fill="#b3f21e" stroke-linecap="round" stroke-linejoin="round" stroke-width="2.0478"/>
  <path transform="matrix(2.3358 0 0 2.3358 458.19 -1823.5)" d="m1573.5 799.57c-20.312 6e-3 -40.629 3.6313-56.304 10.874-10.684 4.9362-18.247 10.205-27.878 19.421-16.617 15.9-27.115 35.488-31.255 58.319-1.2245 6.7532-1.6035 32.298-0.5307 35.776 0.4572 1.4824 0.1478 1.333-1.1783-0.56844-4.3093-6.1789-14.739-15.218-21.832-18.922l-7.5308-3.9331 5.9841-3.5879c8.6814-5.2053 13.348-10.19 17.628-18.832 3.4685-7.0031 3.8162-8.5168 4.1734-18.169 0.4438-11.988-1.0508-18.773-6.3257-28.715-4.3035-8.1107-13.696-17.322-21.642-21.226-13.93-6.8434-7.718-6.5672-156.79-6.9675-133.85-0.35942-134.98-0.34557-142.7 1.774-16.49 4.5239-29.894 12.292-43.229 25.052-13.942 13.34-22.953 28.211-28.871 47.641-2.6234 8.6137-2.8289 10.613-2.8649 27.841-0.052 24.891 2.4031 36.052 12.021 54.649 1.7599 3.4027 4.1064 7.9362 5.2142 10.074 2.7025 5.2146 16.739 18.127 27.663 25.449 10.607 7.109 18.043 10.758 29.796 14.621v5e-4l8.7643 2.881 126.61 0.039c80.707 0.025 130.24-0.3488 136.62-1.0314 22.707-2.4285 35.704-7.6648 47.247-19.033 11.002-10.836 16.885-24.578 16.91-39.494l0.01-5.8782 4.0297 8.2558c4.9907 10.226 12.374 20.452 21.47 29.737 11.328 11.562 24.868 19.658 41.52 24.826l8.7483 2.7151 241.28-0.5767 7.2575-3.2169c12.428-5.5085 15.278-7.2383 20.263-12.3 9.4809-9.6252 14.44-24.232 14.51-42.738 0.07-18.305-4.9751-32.124-16.058-43.992-7.799-8.3506-16.9-14.069-44.533-27.982-12.477-6.2817-24.674-12.895-27.106-14.696-6.192-4.586-8.82-10.116-8.2238-17.304 0.4144-4.9981 0.95-6.1062 4.6002-9.511 8.8453-8.2508 23.236-7.5765 34.141 1.5999 3.9084 3.2887 10.743 24.239 10.743 24.239h35.855v-67.023h-41.028c-33.235 0-42.162 0.29517-46.997 1.5544-18.962 4.939-34.506 19.074-39.79 36.182-1.1358 3.6771-2.3752 10.404-2.7543 14.949l-0.6889 8.2636-2.852-5.2147c-10.402-19.021-28.518-36.059-47.826-44.98-15.655-7.2331-35.962-10.846-56.274-10.84zm-1205.1 0.30799c-26.121 0.48369-46.028 5.9934-63.741 17.455-17.199 11.13-33.71 31.134-40.301 48.83l-1.9198 5.1558-0.63975-11.858c-0.7247-13.438-2.7781-20.143-9.3803-30.631-7.353-11.68-17.697-19.254-32.256-23.616-5.6498-1.6926-12.519-1.8838-79.139-2.1988l-72.952-0.34468v35.136h28.872v41.781l26.551-0.1416c14.603-0.0778 26.9-0.19818 27.325-0.26768s0.77308-9.4669 0.77308-20.883v-20.756l16.756 0.48214c19.281 0.55471 24.857 2.1897 31.125 9.1276 4.0805 4.5167 5.1167 8.6121 4.5263 17.884-0.77829 12.223-8.4293 18.966-24.051 21.197-3.9698 0.5669-24.285 1.0399-45.146 1.0511l-37.927 0.0201 0.32763 70.89c0.32341 69.946 0.35815 70.98 2.6045 77.664 3.0143 8.9681 8.7941 17.051 15.637 21.817 5.9448 4.1412 15.537 3.605 15.537 3.605h1415.9c-0.4377-0.2307-0.6579-0.6801-0.6579-1.3514v-7.4999c0-2.8786 0.3198-7.2985 0.9592-9.1167 0.6393-1.8181 1.8616-3.8776 3.6669-4.9003 1.8053-1.0226 4.2878-1.7044 7.4471-2.0453 3.1969-0.3788 7.3342-0.5679 12.412-0.5679h5.8105c0.7522 0 3.1193-0.1808 3.1193-2.1069s-2.3671-1.9594-3.1193-1.9594h-27.249c-1.0155 0-1.5234-0.5111-1.5234-1.5337v-6.0068c0-0.8415 0.3721-1.3219 1.1136-1.4444h-1370.3s-22.065 0.6376-24.461-3.7868c-2.3451-4.3304-2.282-14.834-2.282-14.834v-38.232l-0.28938-44.629 23.957 0.58188 22.357 43.289c21.041 40.74 22.6 43.426 26.482 45.622l4.1243 2.0805h183.54c7.6692 0 17.695-3.5544 29.258-10.583s25.756-24.005 34.614-38.658c4.9006-8.1066 11.126-24.02 12.401-31.698l0.72761-4.3822h-59.499l-1.2619 5.4136c-5.2136 22.36-24.605 40.891-46.161 44.114-9.949 1.4877-118.87 0.90857-121.5-0.64596-1.0471-0.62025-9.2101-14.772-18.14-31.449l-16.237-30.322 5.1511-2.8314c11.507-6.3252 21.803-16.456 25.983-25.567 1.5964-3.4792 1.6211-3.4904 1.0227-0.47284-1.4249 7.1849-1.7603 30.579-0.55656 38.812 2.1021 14.377 8.9237 32.785 15.708 42.389l2.003 2.836h69.242l-4.6607-3.5595c-10.178-7.7718-18.724-22.168-21.958-36.993-1.4021-6.4268-1.6562-11.362-1.2459-24.231 0.57559-18.057 1.9215-24.516 7.4791-35.902 18.162-37.207 69.801-41.875 93.286-8.4331 2.7482 3.9133 5.8473 9.1833 6.8869 11.711l1.8903 4.5966 60.299 8e-3 -3.1011-8.507c-9.8755-27.09-32.64-50.028-60.226-60.685-13.784-5.325-24.062-7.1785-43.373-7.8228-3.9968-0.13335-7.8554-0.16677-11.587-0.0977zm1180.4 222.87 0.4098-0.033c-0.1478 0-0.2836 0.012-0.4098 0.033zm-1.9787 38.533c0.229 0.1206 0.5162 0.1824 0.8651 0.1824zm-1068.4-258.66v35.195h25.778v39.698h54.65v-40.016l13.663 0.63459c7.5143 0.34916 16.055 1.3538 18.979 2.2324 9.7311 2.9242 14.608 11.579 13.353 23.693-1.0833 10.45-5.4953 16.158-14.939 19.327-2.7565 0.92496-24.282 1.3441-82.462 1.6056l-78.731 0.35347 0.7183 2.2722c0.39499 1.2496 0.96425 9.0944 1.265 17.433l0.54674 15.161 77.982 0.34468c84.791 0.37508 83.836 0.31145 92.773 6.2255 6.544 4.3306 8.9245 10.449 8.9245 22.94 0 8.9979-0.33657 11.004-2.5936 15.467-2.1309 4.2136-3.6021 5.6281-8.2491 7.9303-6.4082 3.1746-17.874 4.9315-32.18 4.9315h-9.0496v-50.01h-54.649v50.01h-25.778v35.058h57.784c32.837 0 62.107-0.4622 67.797-1.0707 22.707-2.4285 35.704-7.6648 47.246-19.033 11.002-10.836 16.885-24.578 16.91-39.494l9e-3 -5.8782 4.0292 8.2558c7.305 14.967 21.911 32.4 34.103 40.704 12.693 8.6454 28.849 15.03 44.338 17.521 4.2534 0.684 8.4294 1.38 9.28 1.5467v5e-4c0.85068 0.1666 8.5072 0.3545 17.014 0.4165 39.386 0.2892 66.531-9.8556 88.886-33.219 17.61-18.404 26.701-38.451 29.148-64.276 2.2666-23.922-2.9194-47.653-14.665-67.102l-3.2696-5.4131h-68.767l6.1769 5.7185c14.536 13.458 21.79 32.272 21.777 56.481-5e-3 9.3681-2.2356 23.136-5.0297 31.047-11.333 32.085-46.823 47.361-76.425 32.894-14.762-7.2145-26.375-22.216-30.904-39.923-5.6946-22.266-2.5358-50.689 7.5024-67.503 4.1441-6.9414 14.644-16.869 21.536-20.361 11.149-5.6496 9.2052-5.5246 86.675-5.5557l71.921-0.0289v139.22h-29.903v35.058l238.71-0.088-5.671-2.3756c-17.496-7.3291-33.181-16.95-44.509-27.304l-5.7898-5.2917h-97.152v-140.23h30.934v-35.059h-126.59c-124.54 0-126.72 0.0345-134.23 2.1182-16.395 4.5432-29.733 12.296-43.008 24.997-16.617 15.9-27.115 35.488-31.255 58.319-1.2246 6.7532-1.604 32.298-0.53124 35.776 0.45727 1.4824 0.14843 1.333-1.1777-0.56844-4.3093-6.1789-14.739-15.218-21.832-18.922l-7.5313-3.9331 5.9846-3.5879c8.6814-5.2053 13.347-10.19 17.627-18.832 3.4685-7.0031 3.8161-8.5168 4.1734-18.169 0.44377-11.988-1.0507-18.773-6.3257-28.715-4.3035-8.1107-13.695-17.322-21.642-21.226-12.824-6.2999-15.215-6.4903-87.611-6.9639zm791.39 35.71c102.1 0 110.76 0.13441 116.15 1.8014 10.293 3.1863 15.161 11.576 13.881 23.925-1.0867 10.483-5.643 16.349-14.939 19.232-2.0516 0.63621-14.264 1.3912-27.138 1.6779l-23.408 0.52141 0.7234 3.2308c0.3979 1.7768 0.7235 9.5579 0.7235 17.291v14.061l23.2 0.5085c25.028 0.54838 30.9 1.507 37.992 6.2001 6.5439 4.3306 8.9245 10.449 8.9245 22.94 0 8.9979-0.3366 11.004-2.5936 15.467-3.4123 6.7473-10.191 10.279-22.642 11.797-11.402 1.3897-222.89 1.285-227.74-0.11265-5.5407-1.5954-19.874-11.411-25.004-17.123-13.297-14.805-19.354-38.081-16.459-63.249 1.4166-12.316 4.8994-23.767 9.6479-31.721 4.3082-7.2163 14.772-16.954 22.159-20.621 12.26-6.087 6.5962-5.826 126.52-5.826zm304.18 0.23358c11.878 0.0635 20.187 2.2575 28.325 7.4802 6.4829 4.16 15.392 13.737 19.386 20.84 8.4232 14.978 11.476 36.735 8.075 57.545-3.1706 19.399-9.966 31.591-23.657 42.444l-4.9904 3.9564h70.276l2.772-4.3827c4.598-7.2695 10.489-20.857 12.696-29.281 3.5589-13.588 4.6096-31.793 2.5916-44.895-0.3975-2.5806-0.1287-2.4477 3.9171 1.942 8.716 9.4567 20.528 17.239 47.654 31.394 25.648 13.384 32.398 20.063 32.454 32.109 0.029 6.3155-2.1976 11.599-6.9391 16.465l-3.7678 3.8669-96.459-0.12557c-53.052-0.0692-99.243-0.52622-102.65-1.0154-9.4739-1.3621-20.441-7.26-28.394-15.27-15.071-15.179-21.662-38.293-18.575-65.138 2.2664-19.704 8.0857-32.681 19.428-43.324 11.304-10.608 21.894-14.695 37.852-14.61zm-344.19 6.4689 4.022 2.9135c20.412 14.786 29.994 44.397 24.75 76.483-2.8506 17.441-8.3442 28.354-19.487 38.711-6.8976 6.4112-6.9617 6.5196-4.1243 6.9469 1.5852 0.23873 16.913 0.50359 34.061 0.58859l31.178 0.15452 2.773-4.3827c1.5252-2.4102 4.5123-8.0943 6.6383-12.631 14.937-31.875 12.285-74.679-6.4363-103.85l-3.1641-4.9304h-35.105z" fill="#fff" stroke-width="1.0311"/>
 </g>
</svg>
